<?xml version="1.0" encoding="utf-8"?>
<!-- Generator: Adobe Illustrator 24.2.3, SVG Export Plug-In . SVG Version: 6.00 Build 0)  -->
<svg version="1.1" id="Layer_1" xmlns="http://www.w3.org/2000/svg" xmlns:xlink="http://www.w3.org/1999/xlink" x="0px" y="0px"
	 viewBox="0 0 200 200" style="enable-background:new 0 0 200 200;" xml:space="preserve">
<style type="text/css">
	.st0{fill:#03205B;}
	.st1{fill:#FFFFFF;}
</style>
<g>
	<g>
		<circle class="st0" cx="100" cy="100" r="100"/>
	</g>
	<g>
		<g>
			<circle class="st1" cx="100" cy="103.81" r="31.97"/>
		</g>
		<g>
			<path class="st0" d="M100,107.31c-0.9,0-1.79-0.34-2.48-1.02c-1.37-1.37-1.37-3.58,0-4.95l10.74-10.74
				c1.37-1.37,3.58-1.37,4.95,0c1.37,1.37,1.37,3.58,0,4.95l-10.74,10.74C101.79,106.97,100.9,107.31,100,107.31z"/>
		</g>
		<path class="st1" d="M143.4,69.07c0.68,0.68,1.58,1.02,2.47,1.02s1.79-0.34,2.48-1.03c1.37-1.37,1.37-3.58,0-4.95l-8.65-8.65
			c-1.37-1.37-3.58-1.37-4.95,0c-1.37,1.37-1.37,3.58,0,4.95l2.2,2.2l-5.28,5.28C123.92,61.06,113.96,56.68,103,56v-7.88h8.74
			c1.93,0,3.5-1.57,3.5-3.5s-1.57-3.5-3.5-3.5H88.26c-1.93,0-3.5,1.57-3.5,3.5s1.57,3.5,3.5,3.5H97V56
			c-25.03,1.55-44.92,22.4-44.92,47.82c0,26.42,21.5,47.92,47.92,47.92s47.92-21.5,47.92-47.92c0-12.13-4.54-23.22-12-31.67
			l5.28-5.28L143.4,69.07z M100,145.73c-23.11,0-41.92-18.81-41.92-41.92C58.08,80.7,76.89,61.9,100,61.9s41.92,18.81,41.92,41.92
			C141.92,126.93,123.11,145.73,100,145.73z"/>
	</g>
</g>
</svg>
