<?xml version="1.0" encoding="utf-8"?>
<!-- Generator: Adobe Illustrator 24.2.3, SVG Export Plug-In . SVG Version: 6.00 Build 0)  -->
<svg version="1.1" id="Layer_1" xmlns="http://www.w3.org/2000/svg" xmlns:xlink="http://www.w3.org/1999/xlink" x="0px" y="0px"
	 viewBox="0 0 200 200" style="enable-background:new 0 0 200 200;" xml:space="preserve">
<style type="text/css">
	.st0{fill:#03205B;}
	.st1{fill:#FFFFFF;}
</style>
<circle class="st0" cx="100" cy="100" r="100"/>
<g>
	<polygon class="st1" points="105.34,50 111.83,50 99.97,33.84 88.1,50 94.6,50 94.6,162.16 105.34,162.16 	"/>
	<polygon class="st1" points="133.58,79.62 143.42,59.87 148.95,62.74 145.86,42.93 127.88,51.81 133.88,54.92 122.36,78.05 
		132.4,131.82 117.76,162.16 129.68,162.16 143.6,133.31 	"/>
	<polygon class="st1" points="67.6,131.82 77.64,78.05 66.12,54.92 72.12,51.81 54.14,42.93 51.05,62.74 56.58,59.87 66.42,79.62 
		56.4,133.31 70.32,162.16 82.24,162.16 	"/>
</g>
</svg>
