<?xml version="1.0" encoding="utf-8"?>
<!-- Generator: Adobe Illustrator 24.2.3, SVG Export Plug-In . SVG Version: 6.00 Build 0)  -->
<svg version="1.1" id="Layer_1" xmlns="http://www.w3.org/2000/svg" xmlns:xlink="http://www.w3.org/1999/xlink" x="0px" y="0px"
	 viewBox="0 0 200 200" style="enable-background:new 0 0 200 200;" xml:space="preserve">
<style type="text/css">
	.st0{fill:#03205B;}
	.st1{fill:#FFFFFF;}
</style>
<g>
	<circle class="st0" cx="100" cy="100" r="100"/>
	<g>
		<rect x="80.85" y="92.6" class="st1" width="38.3" height="14.8"/>
		<path class="st1" d="M137.68,66.75h-8.12c-2.43,0-4.41,1.98-4.41,4.41V86.6v26.8v15.44c0,2.43,1.98,4.41,4.41,4.41h8.12
			c2.43,0,4.41-1.98,4.41-4.41v-9.89v-37.9v-9.89C142.09,68.73,140.11,66.75,137.68,66.75z"/>
		<path class="st1" d="M57.91,128.84c0,2.43,1.98,4.41,4.41,4.41h8.12c2.43,0,4.41-1.98,4.41-4.41V113.4V86.6V71.16
			c0-2.43-1.98-4.41-4.41-4.41h-8.12c-2.43,0-4.41,1.98-4.41,4.41v9.89v37.9V128.84z"/>
		<path class="st1" d="M154.49,76.64h-2c-2.43,0-4.41,1.98-4.41,4.41v37.9c0,2.43,1.98,4.41,4.41,4.41h2c2.43,0,4.41-1.98,4.41-4.41
			v-37.9C158.9,78.62,156.92,76.64,154.49,76.64z"/>
		<path class="st1" d="M47.51,76.64h-2c-2.43,0-4.41,1.98-4.41,4.41v37.9c0,2.43,1.98,4.41,4.41,4.41h2c2.43,0,4.41-1.98,4.41-4.41
			v-37.9C51.91,78.62,49.94,76.64,47.51,76.64z"/>
		<path class="st0" d="M154.49,70.64h-2c-1.58,0-3.07,0.36-4.41,0.99v-0.47c0-5.74-4.67-10.41-10.41-10.41h-8.12
			c-5.74,0-10.41,4.67-10.41,10.41V86.6h-38.3V71.16c0-5.74-4.67-10.41-10.41-10.41h-8.12c-5.74,0-10.41,4.67-10.41,10.41v0.47
			c-1.34-0.63-2.83-0.99-4.41-0.99h-2c-5.74,0-10.41,4.67-10.41,10.41v37.9c0,5.74,4.67,10.41,10.41,10.41h2
			c1.58,0,3.07-0.36,4.41-0.99v0.47c0,5.74,4.67,10.41,10.41,10.41h8.12c5.74,0,10.41-4.67,10.41-10.41V113.4h38.3v15.44
			c0,5.74,4.67,10.41,10.41,10.41h8.12c5.74,0,10.41-4.67,10.41-10.41v-0.47c1.34,0.63,2.83,0.99,4.41,0.99h2
			c5.74,0,10.41-4.67,10.41-10.41v-37.9C164.9,75.31,160.23,70.64,154.49,70.64z M47.51,123.36h-2c-2.43,0-4.41-1.98-4.41-4.41
			v-37.9c0-2.43,1.98-4.41,4.41-4.41h2c2.43,0,4.41,1.98,4.41,4.41v37.9C51.91,121.38,49.94,123.36,47.51,123.36z M74.85,86.6v26.8
			v15.44c0,2.43-1.98,4.41-4.41,4.41h-8.12c-2.43,0-4.41-1.98-4.41-4.41v-9.89v-37.9v-9.89c0-2.43,1.98-4.41,4.41-4.41h8.12
			c2.43,0,4.41,1.98,4.41,4.41V86.6z M119.15,107.4h-38.3V92.6h38.3V107.4z M142.09,128.84c0,2.43-1.98,4.41-4.41,4.41h-8.12
			c-2.43,0-4.41-1.98-4.41-4.41V113.4V86.6V71.16c0-2.43,1.98-4.41,4.41-4.41h8.12c2.43,0,4.41,1.98,4.41,4.41v9.89v37.9V128.84z
			 M158.9,118.95c0,2.43-1.98,4.41-4.41,4.41h-2c-2.43,0-4.41-1.98-4.41-4.41v-37.9c0-2.43,1.98-4.41,4.41-4.41h2
			c2.43,0,4.41,1.98,4.41,4.41V118.95z"/>
	</g>
</g>
</svg>
