<?xml version="1.0" encoding="utf-8"?>
<!-- Generator: Adobe Illustrator 24.2.3, SVG Export Plug-In . SVG Version: 6.00 Build 0)  -->
<svg version="1.1" id="Layer_1" xmlns="http://www.w3.org/2000/svg" xmlns:xlink="http://www.w3.org/1999/xlink" x="0px" y="0px"
	 viewBox="0 0 200 200" style="enable-background:new 0 0 200 200;" xml:space="preserve">
<style type="text/css">
	.st0{fill:#03205B;}
	.st1{fill:#FFFFFF;}
</style>
<g>
	<circle class="st0" cx="100" cy="100" r="100"/>
	<g>
		<path class="st1" d="M125.86,58.78c-10.54,0-19.8,5.44-25.16,13.65c-5.36-8.21-14.62-13.65-25.16-13.65
			c-16.59,0-30.04,13.45-30.04,30.04c0,6.67,1.43,12.88,3.66,18.71h24.28l5.68-13.45c0.52-1.21,1.71-2.05,3.06-1.87
			c1.31,0.1,2.43,1.01,2.77,2.29l5.59,21.06l3.06-6.8c0.5-1.11,1.6-1.82,2.82-1.82h14.38c1.71,0,3.09,1.38,3.09,3.09
			s-1.38,3.09-3.09,3.09H98.42l-5.81,12.92c-0.5,1.12-1.61,1.82-2.82,1.82c-0.08,0-0.17-0.01-0.25-0.01
			c-1.3-0.1-2.39-1.02-2.73-2.28l-5.5-20.76l-2.97,7.03c-0.49,1.14-1.6,1.88-2.85,1.88l-36.35,0c-1.71,0-3.09,1.38-3.09,3.09
			c0,1.71,1.38,3.09,3.09,3.09h16.4c15.88,24.29,45.17,38.26,45.17,38.26s55.2-26.17,55.2-69.32
			C155.91,72.23,142.46,58.78,125.86,58.78z"/>
	</g>
</g>
</svg>
