<?xml version="1.0" encoding="utf-8"?>
<!-- Generator: Adobe Illustrator 24.2.3, SVG Export Plug-In . SVG Version: 6.00 Build 0)  -->
<svg version="1.1" id="Layer_1" xmlns="http://www.w3.org/2000/svg" xmlns:xlink="http://www.w3.org/1999/xlink" x="0px" y="0px"
	 viewBox="0 0 200 200" style="enable-background:new 0 0 200 200;" xml:space="preserve">
<style type="text/css">
	.st0{fill:#03205B;}
	.st1{fill:#FFFFFF;}
</style>
<g>
	<circle class="st0" cx="100" cy="100" r="100"/>
</g>
<g>
	<path class="st1" d="M103.74,94.84l-26.8,19.47c-1.59,1.16-2.26,3.21-1.65,5.09l10.24,31.5c0.61,1.87,2.36,3.14,4.33,3.14h33.13
		c1.97,0,3.72-1.27,4.33-3.14l10.24-31.5c0.61-1.87-0.06-3.93-1.65-5.09l-26.8-19.47C107.49,93.68,105.33,93.68,103.74,94.84z"/>
	<path class="st1" d="M136.06,99.52l15.08-10.95c1.59-1.16,2.26-3.21,1.65-5.09l-5.76-17.72c-0.61-1.87-2.36-3.14-4.33-3.14h-18.64
		c-1.97,0-3.72,1.27-4.33,3.14l-5.76,17.72c-0.61,1.87,0.06,3.93,1.65,5.09l15.08,10.95C132.3,100.68,134.46,100.68,136.06,99.52z"
		/>
	<path class="st1" d="M78.83,101.01l24.62-17.88c1.59-1.16,2.26-3.21,1.65-5.09l-9.4-28.94c-0.61-1.87-2.36-3.14-4.33-3.14H60.94
		c-1.97,0-3.72,1.27-4.33,3.14l-9.4,28.94c-0.61,1.87,0.06,3.93,1.65,5.09l24.62,17.88C75.07,102.17,77.23,102.17,78.83,101.01z"/>
</g>
</svg>
