<?xml version="1.0" encoding="utf-8"?>
<!-- Generator: Adobe Illustrator 24.2.3, SVG Export Plug-In . SVG Version: 6.00 Build 0)  -->
<svg version="1.1" id="Layer_1" xmlns="http://www.w3.org/2000/svg" xmlns:xlink="http://www.w3.org/1999/xlink" x="0px" y="0px"
	 viewBox="0 0 200 200" style="enable-background:new 0 0 200 200;" xml:space="preserve">
<style type="text/css">
	.st0{fill:#03205B;}
	.st1{fill:#FFFFFF;}
</style>
<g>
	<circle class="st0" cx="100" cy="100" r="100"/>
	<g>
		<path class="st1" d="M103.23,71.83L103.23,71.83c-5.49,0-9.94-4.45-9.94-9.94v0c0-5.49,4.45-9.94,9.94-9.94h0
			c5.49,0,9.94,4.45,9.94,9.94v0C113.16,67.38,108.71,71.83,103.23,71.83z"/>
		<g>
			<path class="st1" d="M140.22,90.28c0.01,0,0.02-0.01,0.03-0.01l-0.04,0C140.21,90.27,140.21,90.28,140.22,90.28z"/>
			<path class="st1" d="M142.27,79.36H63.63c-2.64,0-4.79,2.14-4.79,4.79s2.14,4.79,4.79,4.79h23.84c2.1,0,3.8,1.7,3.8,3.8v8.28
				c0,5.57-2.44,10.86-6.68,14.47l-30.22,25.78c-2.3,1.96-2.58,5.42-0.61,7.72s5.42,2.58,7.72,0.61l27.12-23.14
				c4.13-3.52,9.37-5.46,14.79-5.46l20.94-0.02c1.05,0,1.91,0.85,1.91,1.9l0.03,22.56c0,3.03,2.46,5.48,5.49,5.47
				c3.03,0,5.48-2.46,5.47-5.49l-0.04-27.8c-0.01-4.21-3.42-7.62-7.63-7.62l-14.55,0.01V92.73c0-2.1,1.7-3.8,3.8-3.8h23.46
				c2.64,0,4.79-2.14,4.79-4.79S144.91,79.36,142.27,79.36z"/>
		</g>
	</g>
</g>
</svg>
