<?xml version="1.0" encoding="utf-8"?>
<!-- Generator: Adobe Illustrator 24.2.3, SVG Export Plug-In . SVG Version: 6.00 Build 0)  -->
<svg version="1.1" id="Layer_1" xmlns="http://www.w3.org/2000/svg" xmlns:xlink="http://www.w3.org/1999/xlink" x="0px" y="0px"
	 viewBox="0 0 200 200" style="enable-background:new 0 0 200 200;" xml:space="preserve">
<style type="text/css">
	.st0{fill:#03205B;}
	.st1{display:none;opacity:0.1;fill:none;stroke:#FFFFFF;stroke-width:6.1729;stroke-linecap:round;stroke-miterlimit:10;}
	.st2{fill:#FFFFFF;}
</style>
<g>
	<g>
		<circle class="st0" cx="100" cy="100" r="100"/>
		<path class="st1" d="M134.78,124.93c-8.42,1.31-17.17-1.01-23.68-7.52c-7.94-7.94-10.64-22.86-2.8-32.19s17.47-10.9,27.02-6.42"/>
	</g>
	<g>
		<circle class="st2" cx="100" cy="142.3" r="4.3"/>
		<g>
			<path class="st2" d="M65.51,115.6c-2.41-1.8-4.64-3.79-6.68-5.96c-0.08,0.02-0.17,0.03-0.25,0.04c-2.35,0.46-4.67,1.11-6.91,1.95
				c-0.32,0.12-0.63,0.24-0.95,0.37c-0.13,0.05-0.26,0.1-0.39,0.16c-0.52,0.23-1.04,0.46-1.55,0.71c-1.12,0.53-2.21,1.12-3.28,1.74
				c-1.09,0.64-2.15,1.32-3.18,2.04c-0.52,0.37-1.04,0.75-1.55,1.13c-0.09,0.07-0.19,0.15-0.28,0.22c-0.26,0.21-0.52,0.42-0.77,0.63
				c-1.33,1.11-2.6,2.3-3.81,3.54c1.44,1.48,2.96,2.88,4.58,4.17c0.14,0.11,0.29,0.22,0.42,0.34c-0.02-0.01-0.02-0.02-0.04-0.03
				c-0.15-0.11-0.6-0.5,0,0c0,0,0,0,0,0c0.28,0.22,0.57,0.43,0.86,0.64c0.57,0.41,1.16,0.82,1.75,1.21c1.17,0.76,2.37,1.48,3.6,2.13
				c1.08,0.57,2.18,1.09,3.29,1.58c0.01,0,0.01,0.01,0.02,0.01c0.16,0.06,0.31,0.13,0.47,0.19c0.26,0.1,0.53,0.21,0.79,0.3
				c0.53,0.2,1.06,0.38,1.59,0.56c2.27,0.75,4.6,1.31,6.96,1.67c0.14,0.02,0.28,0.04,0.42,0.06c0.25,0.03,0.5,0.06,0.75,0.09
				c0.6,0.06,1.2,0.11,1.81,0.15c1.15,0.07,2.31,0.1,3.46,0.07c1.21-0.02,2.42-0.1,3.62-0.23c0.33-0.03,0.66-0.08,0.98-0.12
				c-1.04,0.1-0.06,0.01,0.19-0.03c0.55-0.08,1.09-0.18,1.63-0.28c2.35-0.46,4.67-1.11,6.91-1.95c0.32-0.12,0.63-0.24,0.95-0.37
				c0.13-0.05,0.26-0.11,0.39-0.16c0.52-0.23,1.04-0.46,1.55-0.71c1.12-0.53,2.21-1.12,3.28-1.74c1.09-0.64,2.15-1.32,3.18-2.04
				c0.52-0.37,1.04-0.75,1.55-1.13c0.09-0.07,0.19-0.15,0.28-0.22c0.26-0.21,0.52-0.42,0.77-0.63c0.21-0.17,0.41-0.36,0.62-0.54
				c-4.14-0.25-8.26-0.96-12.2-2.17C75.04,121.39,69.95,118.91,65.51,115.6z"/>
			<path class="st0" d="M40.88,126.65C40.28,126.15,40.74,126.54,40.88,126.65L40.88,126.65z"/>
			<path class="st2" d="M132.26,116.93c-4.63,3.09-9.87,5.37-15.27,6.73c-2.94,0.74-5.96,1.21-8.99,1.46
				c-0.3,0.02-0.6,0.04-0.91,0.06c0.46,0.4,0.92,0.79,1.4,1.17c0.14,0.11,0.29,0.22,0.42,0.34c-0.02-0.01-0.02-0.02-0.04-0.03
				c-0.15-0.11-0.6-0.5,0,0c0,0,0,0,0,0c0.28,0.22,0.57,0.43,0.86,0.64c0.57,0.41,1.16,0.82,1.75,1.21c1.17,0.76,2.37,1.48,3.6,2.13
				c1.08,0.57,2.18,1.09,3.29,1.58c0.01,0,0.01,0,0.02,0.01c0.16,0.06,0.31,0.13,0.47,0.19c0.26,0.1,0.53,0.21,0.79,0.3
				c0.53,0.2,1.06,0.38,1.59,0.56c2.27,0.75,4.6,1.31,6.96,1.67c0.14,0.02,0.28,0.04,0.42,0.06c0.25,0.03,0.5,0.06,0.75,0.09
				c0.6,0.06,1.2,0.11,1.81,0.15c1.15,0.07,2.31,0.1,3.46,0.07c1.21-0.02,2.42-0.1,3.62-0.23c0.33-0.03,0.66-0.08,0.98-0.12
				c-1.04,0.1-0.06,0.01,0.19-0.03c0.55-0.08,1.09-0.18,1.63-0.28c2.35-0.46,4.67-1.11,6.91-1.95c0.32-0.12,0.63-0.24,0.95-0.37
				c0.13-0.05,0.26-0.11,0.39-0.16c0.52-0.23,1.04-0.46,1.55-0.71c1.12-0.53,2.21-1.12,3.28-1.74c1.09-0.64,2.15-1.32,3.18-2.04
				c0.52-0.37,1.04-0.75,1.55-1.13c0.09-0.07,0.19-0.15,0.28-0.22c0.26-0.21,0.52-0.42,0.77-0.63c1.33-1.11,2.6-2.3,3.81-3.54
				c-1.44-1.48-2.96-2.88-4.58-4.17c-0.14-0.11-0.29-0.22-0.42-0.34c0.02,0.01,0.02,0.02,0.04,0.03c0.15,0.11,0.6,0.5,0,0
				c0,0,0,0,0,0c-0.28-0.22-0.57-0.43-0.86-0.64c-0.57-0.41-1.16-0.82-1.75-1.21c-1.17-0.76-2.37-1.48-3.6-2.13
				c-1.08-0.57-2.18-1.09-3.29-1.58c-0.01,0-0.01-0.01-0.02-0.01c-0.16-0.06-0.31-0.13-0.47-0.19c-0.26-0.1-0.53-0.21-0.79-0.3
				c-0.53-0.2-1.06-0.38-1.59-0.56c-1.83-0.6-3.69-1.08-5.58-1.43C138.25,112.38,135.4,114.83,132.26,116.93z"/>
			<path class="st0" d="M158.76,117.7C159.36,118.19,158.9,117.81,158.76,117.7L158.76,117.7z"/>
			<path class="st0" d="M108.87,126.65C108.27,126.15,108.73,126.54,108.87,126.65L108.87,126.65z"/>
			<path class="st2" d="M109.94,118.93c0.38-0.06,0.76-0.11,1.14-0.17c0.75-0.12,1.51-0.26,2.25-0.41c1.47-0.31,2.93-0.68,4.37-1.12
				c1.26-0.39,2.51-0.82,3.73-1.31c0.16-0.06,0.32-0.13,0.48-0.2c0.27-0.12,0.55-0.24,0.82-0.36c0.57-0.26,1.13-0.53,1.69-0.81
				c2.25-1.13,4.4-2.45,6.43-3.94c0.21-0.15,1.2-0.93,0.37-0.27c0.24-0.19,0.48-0.38,0.72-0.57c0.47-0.38,0.94-0.78,1.4-1.18
				c0.95-0.84,1.87-1.72,2.75-2.63c0.88-0.92,1.72-1.87,2.52-2.86c0.17-0.21,0.91-1.21,0.29-0.35c0.18-0.25,0.37-0.49,0.55-0.73
				c0.36-0.49,0.71-1,1.06-1.5c1.41-2.1,2.64-4.31,3.69-6.61c0.15-0.33,0.29-0.67,0.44-1c-0.44,0.97,0.02-0.07,0.12-0.3
				c0.23-0.59,0.46-1.18,0.67-1.77c0.44-1.25,0.83-2.53,1.17-3.81c0.34-1.31,0.63-2.63,0.87-3.97c0.07-0.38,0.13-0.76,0.19-1.14
				c0.04-0.25,0.16-1.43,0.06-0.35c0.07-0.66,0.16-1.33,0.22-1.99c0.17-1.9,0.23-3.81,0.2-5.71c-2.24-0.04-4.48,0.05-6.71,0.3
				c-0.27,0.03-1.61,0.22-0.52,0.06c-0.38,0.06-0.76,0.11-1.14,0.17c-0.75,0.12-1.51,0.26-2.25,0.41c-1.47,0.31-2.93,0.68-4.37,1.12
				c-1.26,0.39-2.51,0.82-3.73,1.31c-0.16,0.06-0.32,0.13-0.48,0.2c-0.27,0.12-0.55,0.24-0.82,0.36c-0.57,0.26-1.13,0.53-1.69,0.81
				c-1.8,0.91-3.54,1.94-5.21,3.08c0.17,4.78-0.35,9.6-1.51,14.23c-1.45,5.81-3.95,11.42-7.26,16.41c-1.6,2.42-3.4,4.72-5.33,6.88
				c0.77-0.05,1.54-0.12,2.31-0.2C109.69,118.95,111.03,118.76,109.94,118.93z"/>
			<path class="st2" d="M84.62,107.96c-2.78-5.23-4.74-10.92-5.6-16.79c-0.46-3.16-0.64-6.33-0.55-9.49
				c-0.1-0.07-0.21-0.15-0.31-0.22c-2.1-1.41-4.31-2.64-6.61-3.69c-0.33-0.15-0.67-0.29-1-0.44c0.97,0.44-0.07-0.02-0.3-0.12
				c-0.59-0.23-1.18-0.46-1.77-0.67c-1.25-0.44-2.53-0.83-3.81-1.17c-1.31-0.34-2.63-0.63-3.97-0.87c-0.38-0.07-0.76-0.13-1.14-0.19
				c-0.25-0.04-1.43-0.16-0.35-0.06c-0.66-0.07-1.33-0.16-1.99-0.22c-1.9-0.17-3.81-0.23-5.71-0.2c-0.04,2.24,0.05,4.48,0.3,6.71
				c0.03,0.27,0.22,1.61,0.06,0.52c0.06,0.38,0.11,0.76,0.17,1.14c0.12,0.75,0.26,1.51,0.41,2.25c0.31,1.47,0.68,2.93,1.12,4.37
				c0.39,1.26,0.82,2.51,1.31,3.73c0.06,0.16,0.13,0.32,0.2,0.48c0.12,0.27,0.24,0.55,0.36,0.82c0.26,0.57,0.53,1.13,0.81,1.69
				c1.13,2.25,2.45,4.4,3.94,6.43c0.15,0.21,0.93,1.2,0.27,0.37c0.19,0.24,0.38,0.48,0.57,0.72c0.38,0.47,0.78,0.94,1.18,1.4
				c0.84,0.95,1.72,1.87,2.63,2.75c0.92,0.88,1.87,1.72,2.86,2.52c0.21,0.17,1.21,0.91,0.35,0.29c0.25,0.18,0.49,0.37,0.73,0.55
				c0.49,0.36,1,0.71,1.5,1.06c2.1,1.41,4.31,2.64,6.61,3.69c0.33,0.15,0.67,0.29,1,0.44c-0.97-0.44,0.07,0.02,0.3,0.12
				c0.59,0.23,1.18,0.46,1.77,0.67c1.25,0.44,2.53,0.83,3.81,1.17c1.31,0.34,2.63,0.63,3.97,0.87c0.38,0.07,0.76,0.13,1.14,0.19
				c0.25,0.04,1.43,0.16,0.35,0.06c0.66,0.07,1.33,0.16,1.99,0.22c0.43,0.04,0.86,0.06,1.29,0.09
				C89.45,115.76,86.76,112,84.62,107.96z"/>
			<path class="st2" d="M84.75,77.53c0.01-0.03,0.01-0.04,0.01-0.07c0-0.02,0-0.04,0.01-0.05C84.77,77.45,84.76,77.49,84.75,77.53z"
				/>
			<path class="st2" d="M84.77,77.39c0,0.01,0,0.01,0,0.02c0.01-0.05,0.02-0.11,0.02-0.16C84.79,77.3,84.78,77.35,84.77,77.39z"/>
			<path class="st2" d="M114.89,89.25c-0.01,0.03-0.01,0.04-0.01,0.07c0,0.02,0,0.04-0.01,0.05
				C114.87,89.34,114.88,89.3,114.89,89.25z"/>
			<path class="st2" d="M114.87,89.4c0-0.01,0-0.01,0-0.02c-0.01,0.05-0.02,0.1-0.02,0.16C114.85,89.48,114.86,89.43,114.87,89.4z"
				/>
			<path class="st2" d="M84.41,84.3c0.03,1.37,0.11,2.75,0.25,4.11c0.04,0.35,0.08,0.7,0.12,1.05c0.02,0.15,0.04,0.3,0.07,0.45
				c0.1,0.66,0.21,1.31,0.34,1.96c0.53,2.68,1.28,5.32,2.24,7.88c0.14,0.37,0.28,0.74,0.43,1.1c0.05,0.13,0.1,0.25,0.16,0.38
				c0.25,0.57,0.51,1.14,0.78,1.71c0.62,1.3,1.29,2.57,2.02,3.81c0.74,1.26,1.53,2.5,2.37,3.7c0.41,0.58,0.83,1.15,1.26,1.72
				c0.1,0.13,0.21,0.26,0.31,0.39c0.23,0.28,0.45,0.56,0.69,0.84c1.37,1.65,2.84,3.21,4.39,4.69c1.8-1.73,3.5-3.57,5.07-5.53
				c0.15-0.19,0.29-0.39,0.45-0.57c-0.01,0.01-0.02,0.02-0.03,0.03c0,0,0,0,0,0.01c-0.12,0.15-0.52,0.58,0-0.01
				c0.21-0.28,0.43-0.57,0.63-0.85c0.49-0.67,0.96-1.35,1.41-2.04c0.89-1.36,1.73-2.76,2.49-4.2c0.64-1.21,1.23-2.45,1.78-3.71
				c0-0.01,0-0.01,0.01-0.02c0.01-0.02,0.01-0.03,0.02-0.05c0.06-0.16,0.13-0.31,0.19-0.47c0.13-0.31,0.25-0.63,0.37-0.95
				c0.24-0.63,0.46-1.27,0.67-1.91c0.85-2.58,1.5-5.24,1.91-7.93c0.02-0.12,0.04-0.25,0.05-0.37c-0.04,0.23-0.09,0.48,0.03-0.21
				c0.04-0.3,0.07-0.61,0.11-0.91c0.07-0.66,0.12-1.31,0.17-1.97c0.08-1.32,0.11-2.64,0.09-3.95c-0.03-1.37-0.11-2.75-0.25-4.11
				c-0.04-0.35-0.08-0.7-0.12-1.05c-0.02-0.15-0.04-0.3-0.07-0.45c-0.1-0.66-0.21-1.31-0.34-1.96c-0.53-2.68-1.28-5.32-2.24-7.88
				c-0.14-0.37-0.28-0.74-0.43-1.1c-0.05-0.13-0.1-0.25-0.16-0.38c0,0,0,0,0,0c-0.25-0.57-0.51-1.14-0.78-1.71
				c-0.62-1.3-1.29-2.57-2.02-3.81c-0.74-1.26-1.53-2.5-2.37-3.7c-0.41-0.58-0.83-1.15-1.26-1.72c-0.1-0.13-0.21-0.26-0.31-0.39
				c-0.23-0.28-0.45-0.56-0.69-0.84c-1.37-1.65-2.84-3.21-4.39-4.69c-1.8,1.73-3.5,3.58-5.07,5.53c-0.15,0.19-0.29,0.39-0.45,0.57
				c0.01-0.01,0.02-0.02,0.03-0.03c0,0,0,0,0.01-0.01c0.12-0.15,0.52-0.58-0.01,0.01c-0.21,0.28-0.42,0.57-0.63,0.85
				c-0.49,0.67-0.96,1.35-1.41,2.04c-0.89,1.36-1.73,2.76-2.49,4.2c-0.64,1.21-1.23,2.45-1.78,3.71c0,0.01,0,0.01-0.01,0.02
				C88,65.59,88,65.6,87.99,65.62c-0.06,0.16-0.13,0.31-0.19,0.47c-0.13,0.31-0.25,0.63-0.37,0.95c-0.24,0.63-0.46,1.27-0.67,1.91
				c-0.85,2.58-1.5,5.24-1.91,7.93c-0.02,0.12-0.04,0.25-0.05,0.37c0.04-0.23,0.09-0.47-0.03,0.21c-0.04,0.3-0.07,0.61-0.11,0.91
				c-0.07,0.66-0.12,1.31-0.17,1.97C84.41,81.66,84.38,82.98,84.41,84.3z"/>
			<path class="st0" d="M169.93,120.05c-0.24-0.29-0.5-0.57-0.76-0.85c-0.95-1.04-1.93-2.04-2.96-2.99
				c-2.1-1.95-4.36-3.75-6.75-5.34c-4.39-2.93-9.3-5.11-14.42-6.42c3.01-4.25,5.3-9.02,6.82-13.99c1.73-5.65,2.45-11.65,2.25-17.55
				c-0.04-1.09,0.04-2.5-0.51-3.45c-0.59-1.01-1.64-1.41-2.77-1.5c-0.38-0.03-0.76-0.05-1.14-0.06c-1.5-0.07-3-0.07-4.49-0.02
				c-3.07,0.11-6.14,0.49-9.14,1.1c-5.46,1.11-10.78,3.16-15.56,6.02c-0.82-4.85-2.29-9.54-4.41-14.02
				c-2.66-5.63-6.38-10.79-10.73-15.24c-1.1-1.12-2.25-2.2-3.43-3.24c-0.07-0.06-0.15-0.11-0.23-0.17
				c-0.51-0.44-1.15-0.71-1.89-0.71c-0.18,0-0.35,0.02-0.52,0.05c-0.58,0.08-1.13,0.33-1.58,0.81c-0.46,0.36-0.88,0.78-1.3,1.16
				c-0.58,0.53-1.14,1.07-1.69,1.63c-1.11,1.11-2.17,2.26-3.18,3.45c-2.08,2.46-4,5.07-5.65,7.83c-3.05,5.1-5.3,10.77-6.46,16.6
				c-0.12,0.62-0.23,1.24-0.33,1.87c-2.81-1.68-5.77-3.09-8.89-4.2c-5.5-1.97-11.4-2.92-17.24-2.98c-1.45-0.01-2.91,0.03-4.36,0.13
				c-0.1,0.01-0.19,0.03-0.29,0.04c-0.66,0.05-1.31,0.32-1.83,0.83c-0.13,0.13-0.23,0.26-0.33,0.4c-0.36,0.47-0.58,1.06-0.55,1.72
				c-0.06,0.53-0.07,1.07-0.09,1.58c-0.03,0.75-0.05,1.51-0.04,2.26c0,1.45,0.06,2.9,0.18,4.34c0.25,3.02,0.72,6.04,1.46,8.99
				c1.36,5.4,3.64,10.64,6.73,15.27c0.25,0.37,0.5,0.72,0.76,1.08c-8.29,2.14-15.88,6.5-22.07,12.55c-0.99,0.97-1.94,1.98-2.85,3.02
				c-0.06,0.07-0.11,0.15-0.17,0.23c-0.44,0.51-0.71,1.15-0.71,1.89c0,0.18,0.02,0.35,0.05,0.52c0.08,0.59,0.34,1.15,0.82,1.6
				c0.28,0.35,0.59,0.67,0.89,1c0.51,0.55,1.03,1.1,1.56,1.63c0.96,0.96,1.95,1.87,2.98,2.75c2.18,1.85,4.51,3.56,6.96,5.03
				c4.52,2.7,9.55,4.69,14.72,5.72c10.48,2.07,21.34,0.41,30.76-4.61c4.51-2.4,8.65-5.58,12.24-9.23c0.11,0.11,0.22,0.23,0.33,0.34
				c0.96,0.96,1.95,1.87,2.98,2.75c2.18,1.85,4.51,3.56,6.96,5.03c4.52,2.7,9.55,4.69,14.72,5.72c10.48,2.07,21.34,0.41,30.76-4.61
				c4.93-2.62,9.42-6.16,13.21-10.24c0.63-0.68,1.41-1.39,1.77-2.24C171.05,122.14,170.75,121.02,169.93,120.05z M119.69,95.9
				c1.16-4.63,1.68-9.45,1.51-14.23c1.67-1.14,3.4-2.17,5.21-3.08c0.56-0.28,1.12-0.55,1.69-0.81c0.27-0.12,0.54-0.24,0.82-0.36
				c0.16-0.07,0.32-0.13,0.48-0.2c1.23-0.49,2.47-0.93,3.73-1.31c1.44-0.44,2.9-0.81,4.37-1.12c0.75-0.15,1.5-0.29,2.25-0.41
				c0.38-0.06,0.76-0.11,1.14-0.17c-1.09,0.17,0.25-0.03,0.52-0.06c2.23-0.25,4.47-0.33,6.71-0.3c0.03,1.91-0.02,3.81-0.2,5.71
				c-0.06,0.67-0.15,1.33-0.22,1.99c0.11-1.08-0.02,0.1-0.06,0.35c-0.06,0.38-0.12,0.76-0.19,1.14c-0.24,1.33-0.52,2.66-0.87,3.97
				c-0.34,1.29-0.73,2.56-1.17,3.81c-0.21,0.6-0.43,1.19-0.67,1.77c-0.09,0.23-0.56,1.26-0.12,0.3c-0.15,0.33-0.29,0.67-0.44,1
				c-1.05,2.3-2.28,4.51-3.69,6.61c-0.34,0.51-0.69,1.01-1.06,1.5c-0.18,0.25-0.37,0.49-0.55,0.73c0.62-0.86-0.12,0.15-0.29,0.35
				c-0.8,0.99-1.64,1.94-2.52,2.86c-0.88,0.92-1.8,1.79-2.75,2.63c-0.46,0.4-0.92,0.8-1.4,1.18c-0.24,0.19-0.48,0.38-0.72,0.57
				c0.83-0.67-0.16,0.11-0.37,0.27c-2.03,1.49-4.18,2.81-6.43,3.94c-0.56,0.28-1.12,0.55-1.69,0.81c-0.27,0.12-0.54,0.24-0.82,0.36
				c-0.16,0.07-0.32,0.13-0.48,0.2c-1.23,0.49-2.47,0.93-3.73,1.31c-1.44,0.44-2.9,0.81-4.37,1.12c-0.75,0.15-1.5,0.29-2.25,0.41
				c-0.38,0.06-0.76,0.11-1.14,0.17c1.09-0.17-0.25,0.03-0.52,0.06c-0.77,0.08-1.54,0.15-2.31,0.2c1.94-2.16,3.73-4.46,5.33-6.88
				C115.74,107.31,118.24,101.71,119.69,95.9z M84.49,80.34c0.04-0.66,0.1-1.32,0.17-1.97c0.03-0.3,0.07-0.61,0.11-0.91
				c0,0.03-0.01,0.04-0.01,0.07c0.01-0.04,0.01-0.08,0.02-0.12c0-0.01,0-0.01,0-0.02c0-0.04,0.01-0.09,0.02-0.14
				c0.02-0.12,0.04-0.25,0.05-0.37c0.41-2.69,1.05-5.34,1.91-7.93c0.21-0.64,0.44-1.28,0.67-1.91c0.12-0.32,0.24-0.63,0.37-0.95
				c0.06-0.16,0.13-0.31,0.19-0.47C88,65.6,88,65.59,88.01,65.57c0-0.01,0-0.01,0.01-0.02c0.55-1.26,1.14-2.49,1.78-3.71
				c0.76-1.44,1.59-2.84,2.49-4.2c0.45-0.69,0.92-1.37,1.41-2.04c0.21-0.29,0.42-0.57,0.63-0.85c-0.01,0.01-0.02,0.02-0.03,0.03
				c0.16-0.18,0.3-0.38,0.45-0.57c1.56-1.96,3.26-3.8,5.07-5.53c1.54,1.48,3.02,3.04,4.39,4.69c0.23,0.28,0.46,0.56,0.69,0.84
				c0.1,0.13,0.21,0.26,0.31,0.39c0.43,0.57,0.85,1.14,1.26,1.72c0.84,1.2,1.63,2.43,2.37,3.7c0.73,1.24,1.4,2.51,2.02,3.81
				c0.27,0.57,0.52,1.14,0.78,1.71c0,0,0,0,0,0c0.05,0.13,0.1,0.25,0.16,0.38c0.15,0.37,0.29,0.73,0.43,1.1
				c0.96,2.56,1.71,5.19,2.24,7.88c0.13,0.65,0.24,1.3,0.34,1.96c0.02,0.15,0.04,0.3,0.07,0.45c0.04,0.35,0.09,0.7,0.12,1.05
				c0.14,1.37,0.23,2.74,0.25,4.11c0.02,1.32,0,2.64-0.09,3.95c-0.04,0.66-0.1,1.32-0.17,1.97c-0.03,0.3-0.07,0.61-0.11,0.91
				c0-0.03,0.01-0.04,0.01-0.07c-0.01,0.04-0.01,0.08-0.02,0.12c0,0.01,0,0.01,0,0.02c0,0.04-0.01,0.09-0.02,0.14
				c-0.02,0.12-0.04,0.25-0.05,0.37c-0.41,2.69-1.05,5.34-1.91,7.93c-0.21,0.64-0.44,1.28-0.67,1.91c-0.12,0.32-0.24,0.63-0.37,0.95
				c-0.06,0.16-0.13,0.31-0.19,0.47c-0.01,0.02-0.01,0.03-0.02,0.05c0,0.01,0,0.01-0.01,0.02c-0.55,1.26-1.14,2.49-1.78,3.71
				c-0.76,1.44-1.59,2.84-2.49,4.2c-0.45,0.69-0.92,1.37-1.41,2.04c-0.21,0.29-0.42,0.57-0.63,0.85c0.01-0.01,0.02-0.02,0.03-0.03
				c-0.16,0.18-0.3,0.38-0.45,0.57c-1.56,1.96-3.26,3.8-5.07,5.53c-1.54-1.48-3.02-3.04-4.39-4.69c-0.23-0.28-0.46-0.56-0.69-0.84
				c-0.1-0.13-0.21-0.26-0.31-0.39c-0.43-0.57-0.85-1.14-1.26-1.72c-0.84-1.2-1.63-2.43-2.37-3.7c-0.73-1.24-1.4-2.51-2.02-3.81
				c-0.27-0.56-0.52-1.14-0.78-1.71c-0.05-0.13-0.1-0.25-0.16-0.38c-0.15-0.37-0.29-0.73-0.43-1.1c-0.96-2.56-1.71-5.19-2.24-7.88
				c-0.13-0.65-0.24-1.3-0.34-1.96c-0.02-0.15-0.04-0.3-0.07-0.45c-0.04-0.35-0.09-0.7-0.12-1.05c-0.14-1.37-0.23-2.74-0.25-4.11
				C84.38,82.98,84.41,81.66,84.49,80.34z M53.56,88.86c-0.44-1.44-0.81-2.9-1.12-4.37c-0.16-0.75-0.29-1.5-0.41-2.25
				c-0.06-0.38-0.11-0.76-0.17-1.14c0.17,1.09-0.03-0.25-0.06-0.52c-0.25-2.23-0.33-4.47-0.3-6.71c1.91-0.03,3.81,0.02,5.71,0.2
				c0.67,0.06,1.33,0.15,1.99,0.22c-1.08-0.11,0.1,0.02,0.35,0.06c0.38,0.06,0.76,0.12,1.14,0.19c1.33,0.24,2.66,0.52,3.97,0.87
				c1.29,0.34,2.56,0.73,3.81,1.17c0.6,0.21,1.19,0.43,1.77,0.67c0.23,0.09,1.26,0.56,0.3,0.12c0.33,0.15,0.67,0.29,1,0.44
				c2.3,1.05,4.51,2.28,6.61,3.69c0.1,0.07,0.21,0.15,0.31,0.22c-0.1,3.16,0.08,6.32,0.55,9.49c0.86,5.86,2.83,11.56,5.6,16.79
				c2.14,4.03,4.83,7.8,7.89,11.21c-0.43-0.03-0.86-0.05-1.29-0.09c-0.67-0.06-1.33-0.15-1.99-0.22c1.08,0.11-0.1-0.02-0.35-0.06
				c-0.38-0.06-0.76-0.12-1.14-0.19c-1.33-0.24-2.66-0.52-3.97-0.87c-1.29-0.34-2.56-0.73-3.81-1.17c-0.6-0.21-1.19-0.43-1.77-0.67
				c-0.23-0.09-1.26-0.56-0.3-0.12c-0.33-0.15-0.67-0.29-1-0.44c-2.3-1.05-4.51-2.28-6.61-3.69c-0.51-0.34-1.01-0.69-1.5-1.06
				c-0.25-0.18-0.49-0.37-0.73-0.55c0.86,0.62-0.15-0.12-0.35-0.29c-0.99-0.8-1.94-1.64-2.86-2.52c-0.92-0.88-1.79-1.8-2.63-2.75
				c-0.4-0.46-0.8-0.92-1.18-1.4c-0.19-0.24-0.38-0.48-0.57-0.72c0.67,0.83-0.11-0.16-0.27-0.37c-1.49-2.03-2.81-4.18-3.94-6.43
				c-0.28-0.56-0.55-1.12-0.81-1.69c-0.12-0.27-0.24-0.54-0.36-0.82c-0.07-0.16-0.13-0.32-0.2-0.48
				C54.39,91.37,53.95,90.12,53.56,88.86z M91.92,125.72c-0.25,0.21-0.51,0.42-0.77,0.63c-0.09,0.07-0.19,0.15-0.28,0.22
				c-0.51,0.39-1.02,0.76-1.55,1.13c-1.03,0.72-2.09,1.4-3.18,2.04c-1.07,0.62-2.16,1.21-3.28,1.74c-0.51,0.25-1.03,0.48-1.55,0.71
				c-0.13,0.05-0.26,0.11-0.39,0.16c-0.31,0.13-0.63,0.25-0.95,0.37c-2.25,0.84-4.56,1.5-6.91,1.95c-0.54,0.1-1.09,0.2-1.63,0.28
				c-0.24,0.04-1.23,0.13-0.19,0.03c-0.33,0.03-0.66,0.08-0.98,0.12c-1.2,0.13-2.41,0.2-3.62,0.23c-1.15,0.02-2.31,0-3.46-0.07
				c-0.6-0.04-1.21-0.09-1.81-0.15c-0.25-0.03-0.5-0.06-0.75-0.09c-0.14-0.02-0.28-0.04-0.42-0.06c-2.36-0.36-4.69-0.92-6.96-1.67
				c-0.53-0.18-1.06-0.36-1.59-0.56c-0.26-0.1-0.53-0.2-0.79-0.3c-0.16-0.06-0.31-0.13-0.47-0.19c-0.01,0-0.01-0.01-0.02-0.01
				c-1.11-0.49-2.21-1.01-3.29-1.58c-1.23-0.66-2.43-1.37-3.6-2.13c-0.59-0.39-1.18-0.79-1.75-1.21c-0.29-0.21-0.58-0.42-0.86-0.64
				c0,0,0,0,0,0c0.02,0.01,0.02,0.02,0.04,0.03c-0.14-0.11-0.28-0.22-0.42-0.34c-1.62-1.29-3.14-2.69-4.58-4.17
				c1.21-1.24,2.47-2.43,3.81-3.54c0.25-0.21,0.51-0.42,0.77-0.63c0.09-0.07,0.19-0.15,0.28-0.22c0.51-0.39,1.02-0.77,1.55-1.13
				c1.03-0.72,2.09-1.4,3.18-2.04c1.07-0.62,2.16-1.21,3.28-1.74c0.51-0.25,1.03-0.48,1.55-0.71c0.13-0.05,0.26-0.11,0.39-0.16
				c0.31-0.13,0.63-0.25,0.95-0.37c2.25-0.84,4.56-1.5,6.91-1.95c0.08-0.02,0.17-0.03,0.25-0.04c2.04,2.17,4.27,4.16,6.68,5.96
				c4.45,3.31,9.53,5.79,14.83,7.41c3.95,1.21,8.07,1.91,12.2,2.17C92.33,125.36,92.13,125.54,91.92,125.72z M159.91,125.72
				c-0.25,0.21-0.51,0.42-0.77,0.63c-0.09,0.07-0.19,0.15-0.28,0.22c-0.51,0.39-1.02,0.76-1.55,1.13c-1.03,0.72-2.09,1.4-3.18,2.04
				c-1.07,0.62-2.16,1.21-3.28,1.74c-0.51,0.25-1.03,0.48-1.55,0.71c-0.13,0.05-0.26,0.11-0.39,0.16c-0.31,0.13-0.63,0.25-0.95,0.37
				c-2.25,0.84-4.56,1.5-6.91,1.95c-0.54,0.1-1.09,0.2-1.63,0.28c-0.24,0.04-1.23,0.13-0.19,0.03c-0.33,0.03-0.66,0.08-0.98,0.12
				c-1.2,0.13-2.41,0.2-3.62,0.23c-1.15,0.02-2.31,0-3.46-0.07c-0.6-0.04-1.21-0.09-1.81-0.15c-0.25-0.03-0.5-0.06-0.75-0.09
				c-0.14-0.02-0.28-0.04-0.42-0.06c-2.36-0.36-4.69-0.92-6.96-1.67c-0.53-0.18-1.06-0.36-1.59-0.56c-0.26-0.1-0.53-0.2-0.79-0.3
				c-0.16-0.06-0.31-0.13-0.47-0.19c-0.01,0-0.01,0-0.02-0.01c-1.11-0.49-2.21-1.01-3.29-1.58c-1.23-0.66-2.43-1.37-3.6-2.13
				c-0.59-0.39-1.18-0.79-1.75-1.21c-0.29-0.21-0.58-0.42-0.86-0.64c0,0,0,0,0,0c0.02,0.01,0.02,0.02,0.04,0.03
				c-0.14-0.11-0.28-0.22-0.42-0.34c-0.48-0.38-0.94-0.77-1.4-1.17c0.3-0.02,0.61-0.03,0.91-0.06c3.02-0.25,6.04-0.72,8.99-1.46
				c5.4-1.36,10.64-3.64,15.27-6.73c3.15-2.1,5.99-4.55,8.55-7.28c1.89,0.35,3.76,0.83,5.58,1.43c0.53,0.18,1.06,0.36,1.59,0.56
				c0.26,0.1,0.53,0.2,0.79,0.3c0.16,0.06,0.31,0.13,0.47,0.19c0.01,0,0.01,0.01,0.02,0.01c1.11,0.49,2.21,1.01,3.29,1.58
				c1.23,0.66,2.43,1.37,3.6,2.13c0.59,0.39,1.18,0.79,1.75,1.21c0.29,0.21,0.58,0.42,0.86,0.64c0,0,0,0,0,0
				c-0.02-0.01-0.02-0.02-0.04-0.03c0.14,0.11,0.28,0.22,0.42,0.34c1.62,1.29,3.14,2.69,4.58,4.17
				C162.51,123.42,161.24,124.6,159.91,125.72z"/>
			<path class="st0" d="M84.79,77.25c-0.01,0.05-0.02,0.11-0.02,0.16c0,0.02,0,0.04-0.01,0.05C84.88,76.77,84.83,77.02,84.79,77.25z
				"/>
			<path class="st0" d="M94.34,54.75C94.33,54.75,94.33,54.76,94.34,54.75C94.85,54.17,94.45,54.6,94.34,54.75z"/>
			<path class="st0" d="M105.3,112.03C105.3,112.03,105.31,112.03,105.3,112.03C104.79,112.61,105.19,112.18,105.3,112.03z"/>
			<path class="st0" d="M114.84,89.53c0.01-0.05,0.01-0.1,0.02-0.16c0-0.02,0-0.04,0.01-0.05
				C114.76,90.01,114.81,89.77,114.84,89.53z"/>
		</g>
		<circle class="st2" cx="82.88" cy="150.44" r="4.3"/>
		<circle class="st2" cx="117.12" cy="150.44" r="4.3"/>
	</g>
</g>
</svg>
