<?xml version="1.0" encoding="utf-8"?>
<!-- Generator: Adobe Illustrator 24.2.3, SVG Export Plug-In . SVG Version: 6.00 Build 0)  -->
<svg version="1.1" id="Layer_1" xmlns="http://www.w3.org/2000/svg" xmlns:xlink="http://www.w3.org/1999/xlink" x="0px" y="0px"
	 viewBox="0 0 200 200" style="enable-background:new 0 0 200 200;" xml:space="preserve">
<style type="text/css">
	.st0{fill:#03205B;}
	.st1{fill:#FFFFFF;}
</style>
<circle class="st0" cx="100" cy="100" r="100"/>
<path class="st1" d="M77.78,44.65v5.36h33.79v4.26H77.78v7.7h18.87v4.26H77.78v7.7h18.87v4.26H77.78v7.7h18.87v4.26H77.78v7.7h33.79
	v4.26H77.78v7.7h18.87v4.26H77.78v7.7h18.87v4.26H77.78v7.7h18.87v4.26H77.78v7.7h33.79v4.26H77.78v5.36c0,1.75,1.42,3.17,3.17,3.17
	h38.11c1.75,0,3.17-1.42,3.17-3.17V44.65c0-1.75-1.42-3.17-3.17-3.17H80.94C79.2,41.48,77.78,42.9,77.78,44.65z"/>
</svg>
