<?xml version="1.0" encoding="utf-8"?>
<!-- Generator: Adobe Illustrator 24.2.3, SVG Export Plug-In . SVG Version: 6.00 Build 0)  -->
<svg version="1.1" id="Layer_1" xmlns="http://www.w3.org/2000/svg" xmlns:xlink="http://www.w3.org/1999/xlink" x="0px" y="0px"
	 viewBox="0 0 200 200" style="enable-background:new 0 0 200 200;" xml:space="preserve">
<style type="text/css">
	.st0{fill:#03205B;}
	.st1{fill:#FFFFFF;}
</style>
<circle class="st0" cx="100" cy="100" r="100"/>
<g>
	<path class="st1" d="M99.78,95.28H61.39V64.31c0-4.09,3.32-7.41,7.41-7.41h30.97V95.28z"/>
	<path class="st1" d="M99.78,138.47H68.8c-4.09,0-7.41-3.32-7.41-7.41v-30.97h38.38V138.47z"/>
	<path class="st1" d="M142.97,95.28h-38.38V56.9h30.97c4.09,0,7.41,3.32,7.41,7.41V95.28z"/>
	<path class="st1" d="M135.56,138.47h-30.97v-38.38h38.38v30.97C142.97,135.15,139.65,138.47,135.56,138.47z"/>
	<polygon class="st1" points="157.14,149.38 146.57,141.62 146.57,146.58 53.43,146.58 53.43,53.43 58.38,53.43 50.62,42.86 
		42.86,53.43 47.81,53.43 47.81,152.19 146.57,152.19 146.57,157.14 	"/>
</g>
</svg>
