<?xml version="1.0" encoding="utf-8"?>
<!-- Generator: Adobe Illustrator 24.2.3, SVG Export Plug-In . SVG Version: 6.00 Build 0)  -->
<svg version="1.1" id="Layer_1" xmlns="http://www.w3.org/2000/svg" xmlns:xlink="http://www.w3.org/1999/xlink" x="0px" y="0px"
	 viewBox="0 0 200 200" style="enable-background:new 0 0 200 200;" xml:space="preserve">
<style type="text/css">
	.st0{fill:#03205B;}
	.st1{fill:#FFFFFF;}
</style>
<g>
	<circle class="st0" cx="100" cy="100" r="100"/>
	<g>
		<path class="st1" d="M53,131.4l-4.18,5.76c-1.22,1.68-0.85,4.03,0.83,5.25l1.96,1.43c1.68,1.22,4.03,0.85,5.25-0.83l6.8-9.37
			c-0.46,0.03-0.93,0.07-1.39,0.07C59.05,133.7,55.88,132.91,53,131.4z"/>
		<path class="st1" d="M145.18,127.3c7.15-5.68,11.75-14.45,11.75-24.27c0-15.91-12.05-29.05-27.5-30.79V61.07l10.07-3.92
			c1.8-0.7,2.69-2.73,1.99-4.53c-0.7-1.8-2.73-2.69-4.53-1.99l-12.31,4.79c-1.35,0.52-2.23,1.82-2.23,3.26v13.56
			c-12.06,1.36-22.04,9.67-25.84,20.81c2.39,0.01,4.89,0.03,7.5,0.05c3.78-8.29,12.15-14.07,21.84-14.07c13.23,0,24,10.77,24,24
			s-10.77,24-24,24c-6.54,0-12.48-2.64-16.81-6.9c-2.54,0.82-4.98,1.6-7.3,2.35c5.69,7.04,14.38,11.55,24.11,11.55
			c3.69,0,7.23-0.65,10.52-1.84L144.3,143c1.22,1.68,3.57,2.05,5.25,0.83l1.96-1.43c1.68-1.22,2.05-3.57,0.83-5.25L145.18,127.3z"/>
		<path class="st1" d="M127.46,107.88c2.6-0.85,3.24-3.04,2.97-4.81c-0.27-1.77-1.52-3.67-4.25-3.71
			c-17.57-0.25-30.58-0.34-40.2-0.34c-19.27,0-24.94,0.38-26.42,0.68c-3.7,0.74-6.9,2.87-9,6.01c-2.1,3.14-2.85,6.91-2.11,10.61
			s2.87,6.9,6.01,9s6.91,2.85,10.61,2.11C68.99,126.65,91.14,119.71,127.46,107.88z M69.96,116.36H59.01c-1.66,0-3-1.34-3-3
			s1.34-3,3-3h10.95c1.66,0,3,1.34,3,3S71.61,116.36,69.96,116.36z"/>
		<path class="st0" d="M125.93,79.03c-9.69,0-18.05,5.78-21.84,14.07c-2.61-0.02-5.11-0.04-7.5-0.05
			c-10.07-0.06-18.19-0.03-24.38,0.06c-2.86,0.05-5.3,0.11-7.32,0.19c-3.26,0.13-5.43,0.3-6.5,0.51c-5.28,1.05-9.83,4.09-12.82,8.56
			c-2.99,4.47-4.06,9.84-3.01,15.12c1.05,5.28,4.09,9.83,8.56,12.82c0.61,0.41,1.23,0.76,1.87,1.1c2.88,1.51,6.05,2.3,9.27,2.3
			c0.46,0,0.93-0.04,1.39-0.07c0.86-0.06,1.72-0.15,2.58-0.32c3.07-0.61,15-4.25,35.56-10.83c2.32-0.74,4.76-1.53,7.3-2.35
			c4.33,4.26,10.27,6.9,16.81,6.9c13.23,0,24-10.77,24-24S139.16,79.03,125.93,79.03z M65.08,127.43
			c-3.71,0.74-7.47-0.01-10.61-2.11s-5.28-5.29-6.01-9s0.01-7.47,2.11-10.61c2.1-3.14,5.29-5.28,9-6.01
			c1.49-0.3,7.15-0.68,26.42-0.68c9.62,0,22.63,0.09,40.2,0.34c2.72,0.04,3.98,1.94,4.25,3.71c0.27,1.77-0.37,3.97-2.97,4.81
			C91.14,119.71,68.99,126.65,65.08,127.43z"/>
		<path class="st0" d="M69.96,110.36H59.01c-1.66,0-3,1.34-3,3s1.34,3,3,3h10.95c1.66,0,3-1.34,3-3S71.61,110.36,69.96,110.36z"/>
		<path class="st1" d="M74.15,71.96c0-1.93-1.57-3.5-3.5-3.5h-18.5c-1.93,0-3.5,1.57-3.5,3.5s1.57,3.5,3.5,3.5h6.73l6,17.83
			c2.02-0.08,4.47-0.14,7.32-0.19l-5.94-17.65h4.38C72.59,75.46,74.15,73.9,74.15,71.96z"/>
	</g>
</g>
</svg>
