<?xml version="1.0" encoding="utf-8"?>
<!-- Generator: Adobe Illustrator 24.2.3, SVG Export Plug-In . SVG Version: 6.00 Build 0)  -->
<svg version="1.1" id="Layer_1" xmlns="http://www.w3.org/2000/svg" xmlns:xlink="http://www.w3.org/1999/xlink" x="0px" y="0px"
	 viewBox="0 0 200 200" style="enable-background:new 0 0 200 200;" xml:space="preserve">
<style type="text/css">
	.st0{fill:#03205B;}
	.st1{fill:#FFFFFF;}
</style>
<g>
	<circle class="st0" cx="100" cy="100" r="100"/>
	<path class="st1" d="M141.58,124.03c-10.55,0-16.5-5.47-19.64-10.06c-4.9-7.18-6.33-17.28-3.47-24.58c2.66-6.8,9.3-9.78,13.92-8.65
		c2.55,0.63,3.73,2.36,3.52,5.13c-0.59,1.34-1.68,2.46-3.33,3.38c-1.45,0.81-1.96,2.64-1.15,4.08s2.64,1.96,4.08,1.15
		c3.43-1.92,5.69-4.7,6.55-8.05c1.4-5.5-1.23-10.84-2.93-13.53c-5.83-9.25-16.19-12.9-29.2-10.27
		C91.35,66.4,81.29,85.72,75.28,97.27c-1.03,1.97-1.91,3.68-2.69,5c-4.87,8.35-9.94,16.17-18.22,20.19
		c-7.49,3.63-14.65,1.24-14.76,1.2c-1.56-0.55-3.27,0.27-3.82,1.82c-0.56,1.56,0.26,3.28,1.82,3.83c0.22,0.08,3.34,1.16,7.82,1.16
		c3.32,0,7.38-0.59,11.56-2.62c9.8-4.75,15.64-13.75,20.79-22.56c0.85-1.45,1.76-3.21,2.83-5.25c5.51-10.6,14.74-28.33,30.52-31.52
		c6.96-1.41,16.25-1.37,22.01,6.27c-7.16-1.36-16.47,2.78-20.24,12.42c-3.59,9.17-1.94,21.29,4.11,30.15
		c5.58,8.18,14.31,12.68,24.59,12.68c1.66,0,3-1.34,3-3S143.23,124.03,141.58,124.03z"/>
	<path class="st1" d="M69.91,132.67c2.05,0,2.97-0.88,4.35-2.21c1.59-1.53,3.57-3.43,7.39-3.43c3.82,0,5.8,1.9,7.39,3.43
		c1.38,1.33,2.3,2.21,4.35,2.21c2.05,0,2.97-0.88,4.35-2.21c1.59-1.53,3.57-3.43,7.39-3.43c3.82,0,5.81,1.9,7.4,3.43
		c1.39,1.33,2.31,2.21,4.36,2.21c1.36,0,2.21-0.41,3.04-1.05c-3.69-2.54-6.94-5.78-9.62-9.71c-7.6-11.14-9.55-25.92-4.96-37.65
		c0.94-2.39,2.17-4.6,3.64-6.6c-9.97,4.49-16.89,17.8-21.22,26.12c-1.13,2.17-2.13,4.08-3.01,5.59c-4.5,7.7-9.94,16.08-18.17,22.05
		C67.51,132.19,68.4,132.67,69.91,132.67z"/>
</g>
</svg>
