<?xml version="1.0" encoding="utf-8"?>
<!-- Generator: Adobe Illustrator 24.2.3, SVG Export Plug-In . SVG Version: 6.00 Build 0)  -->
<svg version="1.1" id="Layer_1" xmlns="http://www.w3.org/2000/svg" xmlns:xlink="http://www.w3.org/1999/xlink" x="0px" y="0px"
	 viewBox="0 0 200 200" style="enable-background:new 0 0 200 200;" xml:space="preserve">
<style type="text/css">
	.st0{fill:#03205B;}
	.st1{fill:#FFFFFF;}
</style>
<g>
	<circle class="st0" cx="100" cy="100" r="100"/>
	<path class="st1" d="M141.62,134.28H58.38c-4.42,0-8-3.58-8-8V73.72c0-4.42,3.58-8,8-8h83.25c4.42,0,8,3.58,8,8v52.55
		C149.62,130.7,146.04,134.28,141.62,134.28z"/>
	<path class="st0" d="M88.12,111.63l-0.01-23.27c0-1.78,1.87-2.94,3.47-2.14l23.27,11.63c1.77,0.88,1.77,3.4,0,4.29l-23.26,11.64
		C90,114.57,88.12,113.42,88.12,111.63z"/>
</g>
</svg>
