<?xml version="1.0" encoding="utf-8"?>
<!-- Generator: Adobe Illustrator 24.2.3, SVG Export Plug-In . SVG Version: 6.00 Build 0)  -->
<svg version="1.1" id="Layer_1" xmlns="http://www.w3.org/2000/svg" xmlns:xlink="http://www.w3.org/1999/xlink" x="0px" y="0px"
	 viewBox="0 0 200 200" style="enable-background:new 0 0 200 200;" xml:space="preserve">
<style type="text/css">
	.st0{fill:#03205B;}
	.st1{fill:none;}
	.st2{fill:#FFFFFF;}
	.st3{display:none;fill:none;stroke:#EC008C;stroke-width:9.2594;stroke-linecap:round;stroke-linejoin:round;}
</style>
<g>
	<g>
		<circle class="st0" cx="100" cy="100" r="100"/>
	</g>
	<g>
		<path class="st1" d="M62.48,74.45"/>
		<g>
			<path class="st2" d="M99.03,51.32c-4.88,0-9.71,0.71-14.35,2.11c-2.38,0.72-3.73,3.23-3.01,5.61s3.23,3.73,5.61,3.01
				c3.79-1.14,7.75-1.72,11.75-1.72c22.42,0,40.65,18.24,40.65,40.65c0,22.42-18.24,40.65-40.65,40.65c-0.09,0-0.18,0.02-0.27,0.03
				c-0.38,0.02-0.75,0.09-1.09,0.21c-0.12,0.04-0.24,0.06-0.35,0.11c-0.01,0-0.01,0.01-0.02,0.01c-0.18,0.08-0.35,0.18-0.52,0.28
				c-0.08,0.04-0.16,0.08-0.24,0.13c0,0,0,0,0,0c-0.73,0.49-1.31,1.19-1.65,2.02c0,0,0,0.01,0,0.01c-0.11,0.26-0.19,0.54-0.25,0.82
				c-0.06,0.29-0.09,0.59-0.09,0.89s0.03,0.6,0.09,0.89c0.24,1.18,0.94,2.2,1.91,2.85c0,0,0,0,0,0c0.04,0.03,0.09,0.04,0.13,0.07
				c0.2,0.13,0.41,0.25,0.63,0.34c0.01,0,0.01,0.01,0.02,0.01c0.1,0.04,0.21,0.06,0.31,0.09c0.45,0.15,0.91,0.25,1.41,0.25
				c27.38,0,49.65-22.27,49.65-49.65C148.68,73.59,126.41,51.32,99.03,51.32z"/>
			<path class="st2" d="M58.61,105.34c-0.26-2.47-2.48-4.26-4.95-4c-2.47,0.27-4.26,2.48-4,4.96c0.25,2.31,2.2,4.02,4.47,4.02
				c0.16,0,0.32-0.01,0.49-0.03C57.09,110.03,58.88,107.81,58.61,105.34z"/>
			<path class="st2" d="M56.78,117.55c-2.21,1.14-3.08,3.85-1.95,6.06c0.8,1.55,2.38,2.45,4.01,2.45c0.69,0,1.39-0.16,2.05-0.5
				c2.21-1.14,3.08-3.85,1.95-6.06C61.7,117.29,58.99,116.42,56.78,117.55z"/>
			<path class="st2" d="M84.48,138.94c-2.32-0.89-4.92,0.27-5.81,2.59s0.27,4.93,2.59,5.81c0.53,0.21,1.08,0.3,1.61,0.3
				c1.81,0,3.52-1.1,4.2-2.89C87.96,142.43,86.8,139.83,84.48,138.94z"/>
			<path class="st2" d="M65.52,131.56c-1.66,1.84-1.51,4.69,0.34,6.35c0.86,0.77,1.93,1.15,3,1.15c1.23,0,2.46-0.5,3.35-1.49
				c1.66-1.85,1.51-4.69-0.34-6.35C70.02,129.55,67.18,129.71,65.52,131.56z"/>
			<path class="st2" d="M55.37,93.91c0.3,0,0.59-0.03,0.88-0.09s0.57-0.15,0.84-0.26c0.28-0.11,0.54-0.25,0.78-0.41
				c0.25-0.17,0.48-0.35,0.69-0.56c0.83-0.84,1.31-2,1.31-3.18c0-1.19-0.48-2.35-1.31-3.18c-0.21-0.21-0.44-0.4-0.69-0.56
				c-0.24-0.17-0.5-0.31-0.78-0.42c-0.27-0.11-0.55-0.2-0.84-0.26c-1.46-0.29-3.02,0.19-4.06,1.24c-0.84,0.83-1.32,1.99-1.32,3.18
				c0,1.18,0.48,2.34,1.32,3.18S54.19,93.91,55.37,93.91z"/>
		</g>
		<polygon class="st2" points="49.73,75.11 61.82,76.67 69.1,86.46 72.87,57.82 		"/>
		<circle class="st3" cx="99.03" cy="100.97" r="45.15"/>
	</g>
</g>
</svg>
