<?xml version="1.0" encoding="utf-8"?>
<!-- Generator: Adobe Illustrator 24.2.3, SVG Export Plug-In . SVG Version: 6.00 Build 0)  -->
<svg version="1.1" id="Layer_1" xmlns="http://www.w3.org/2000/svg" xmlns:xlink="http://www.w3.org/1999/xlink" x="0px" y="0px"
	 viewBox="0 0 200 200" style="enable-background:new 0 0 200 200;" xml:space="preserve">
<style type="text/css">
	.st0{fill:#03205B;}
	.st1{fill:#FFFFFF;}
</style>
<g>
	<circle class="st0" cx="100" cy="100" r="100"/>
	<path class="st1" d="M149.67,102.96c0,0-3.05-2.42-5.63-4.47c-2.58-2.05-3.74-6.78-3.74-6.78l0,0c-0.12-0.59-0.26-1.17-0.4-1.75
		l0.01,0c0,0-1.01-4.76,0.42-7.73s3.13-6.47,3.13-6.47c0.77-1.59,0.56-3.48-0.54-4.86l-5.02-6.29c-1.1-1.38-2.9-2.01-4.62-1.61
		c0,0-3.8,0.88-7.01,1.62c-3.21,0.74-7.63-1.3-7.63-1.3l0.01,0.02c-0.54-0.27-1.08-0.54-1.63-0.79l0.01-0.01
		c0,0-4.35-2.18-5.77-5.15c-1.42-2.97-3.1-6.49-3.1-6.49c-0.76-1.59-2.37-2.61-4.14-2.61h-8.05c-1.77,0-3.38,1.02-4.14,2.61
		c0,0-1.68,3.51-3.1,6.49c-1.42,2.97-5.77,5.15-5.77,5.15l0.02,0.01c-0.55,0.25-1.1,0.51-1.64,0.79l0.01-0.02
		c0,0-4.42,2.05-7.63,1.31c-3.21-0.74-7.01-1.62-7.01-1.62c-1.72-0.4-3.52,0.23-4.62,1.61l-5.02,6.29c-1.1,1.38-1.31,3.27-0.54,4.86
		c0,0,1.7,3.51,3.14,6.47s0.42,7.73,0.42,7.73l0.01,0c-0.15,0.58-0.28,1.16-0.4,1.75l0,0c0,0-1.15,4.73-3.73,6.78
		s-5.63,4.47-5.63,4.47c-1.39,1.1-2.02,2.89-1.62,4.61l1.79,7.85c0.39,1.72,1.74,3.07,3.47,3.45c0,0,3.8,0.86,7.01,1.58
		c3.21,0.72,6.3,4.48,6.3,4.48l0-0.02c0.37,0.48,0.74,0.96,1.13,1.42l-0.02,0c0,0,2.98,3.85,2.97,7.14
		c-0.01,3.29-0.02,7.19-0.02,7.19c-0.01,1.77,1,3.38,2.6,4.15l7.25,3.49c1.59,0.77,3.48,0.55,4.86-0.56c0,0,3.04-2.44,5.61-4.5
		c2.57-2.06,7.44-2.13,7.44-2.13l-0.02-0.02c0.3,0.01,0.61,0.02,0.91,0.02c0.31,0,0.61-0.02,0.92-0.02l-0.02,0.02
		c0,0,4.87,0.07,7.44,2.13s5.61,4.5,5.61,4.5c1.38,1.11,3.27,1.32,4.86,0.56l7.25-3.49c1.59-0.77,2.6-2.38,2.59-4.15
		c0,0-0.01-3.9-0.02-7.19c-0.01-3.29,2.97-7.14,2.97-7.14l-0.02,0c0.39-0.47,0.77-0.94,1.13-1.42l0,0.02c0,0,3.09-3.76,6.3-4.49
		c3.21-0.72,7.01-1.58,7.01-1.58c1.72-0.39,3.07-1.73,3.46-3.45l1.79-7.85C151.69,105.85,151.05,104.06,149.67,102.96z M74.16,100
		c0-14.27,11.57-25.84,25.84-25.84s25.84,11.57,25.84,25.84s-11.57,25.84-25.84,25.84S74.16,114.27,74.16,100z"/>
</g>
</svg>
