<?xml version="1.0" encoding="utf-8"?>
<!-- Generator: Adobe Illustrator 24.2.3, SVG Export Plug-In . SVG Version: 6.00 Build 0)  -->
<svg version="1.1" id="Layer_1" xmlns="http://www.w3.org/2000/svg" xmlns:xlink="http://www.w3.org/1999/xlink" x="0px" y="0px"
	 viewBox="0 0 67.8 57.8" style="enable-background:new 0 0 67.8 57.8;" xml:space="preserve">
<g>
	<path d="M27,35.1c1.2,2.1,1.8,4.4,1.8,6.9c0,4-1.3,7.3-3.9,9.9c-2.6,2.6-5.8,3.9-9.6,3.9c-3.7,0-6.8-1.2-9.4-3.8
		C3.3,49.5,2,46.2,2,42c0-1.8,0.4-3.8,1.1-5.8s1.5-3.9,2.4-5.8L19,2h12.8l-10,28.2C24.1,31.4,25.8,33,27,35.1z M61,35.1
		c1.2,2.1,1.8,4.4,1.8,6.9c0,4-1.3,7.3-3.9,9.9c-2.6,2.6-5.8,3.9-9.6,3.9c-3.7,0-6.8-1.2-9.4-3.8c-2.6-2.5-3.9-5.8-3.9-10
		c0-1.8,0.4-3.8,1.1-5.8s1.5-3.9,2.4-5.8L53,2h12.8l-10,28.2C58.1,31.4,59.8,33,61,35.1z"/>
</g>
</svg>
