<?xml version="1.0" encoding="utf-8"?>
<!-- Generator: Adobe Illustrator 24.2.3, SVG Export Plug-In . SVG Version: 6.00 Build 0)  -->
<svg version="1.1" id="Layer_1" xmlns="http://www.w3.org/2000/svg" xmlns:xlink="http://www.w3.org/1999/xlink" x="0px" y="0px"
	 viewBox="0 0 98.37 98.37" style="enable-background:new 0 0 98.37 98.37;" xml:space="preserve">
<style type="text/css">
	.st0{fill:#02205C;}
	.st1{fill:none;stroke:#009CA5;stroke-width:1.9675;stroke-linecap:round;stroke-miterlimit:10;}
	.st2{fill:#009CA5;}
	.st3{fill:none;stroke:#02205C;stroke-width:1.9675;stroke-linecap:round;stroke-miterlimit:10;}
</style>
<g>
	<circle class="st0" cx="49.19" cy="49.19" r="49.19"/>
	<g>
		<path class="st1" d="M61.86,41.45c0,0,3.24-0.03,4.47,2.99c1.22,3.02-1.81,7.91,2.6,11.91"/>
		<g>
			<path class="st2" d="M56.86,33.28l0.71-4.11c0.08-0.49-0.24-0.95-0.73-1.04l-2.87-0.49c-0.49-0.08-0.95,0.24-1.04,0.73
				l-0.71,4.11"/>
			<path class="st2" d="M41.81,33.28l-0.71-4.11c-0.08-0.49,0.24-0.95,0.73-1.04l2.87-0.49c0.49-0.08,0.95,0.24,1.04,0.73l0.71,4.11
				"/>
		</g>
		<g>
			<path class="st2" d="M49.34,72.13c-3.15,0-6.34-0.27-9.49-0.8c-4.36-0.74-7.31-4.78-6.72-9.2l2.71-20.18
				c0.01-0.05,0-0.12-0.01-0.18l-1.36-5.94c-0.16-0.71-0.01-1.47,0.42-2.06c0.43-0.59,1.09-0.97,1.82-1.03
				c4.19-0.37,8.43-0.56,12.62-0.56s8.43,0.19,12.62,0.56c0.72,0.06,1.39,0.44,1.82,1.03c0.43,0.59,0.59,1.35,0.42,2.06l-1.36,5.94
				c-0.01,0.07-0.02,0.13-0.01,0.19l2.71,20.17c0.59,4.42-2.36,8.46-6.71,9.2C55.67,71.86,52.48,72.13,49.34,72.13z"/>
			<path class="st0" d="M49.33,33.16c4.18,0,8.35,0.19,12.53,0.56c0.93,0.08,1.58,0.98,1.37,1.89l-1.36,5.94
				c-0.04,0.17-0.05,0.35-0.03,0.53l2.71,20.18c0.52,3.84-2.08,7.45-5.9,8.1c-3.11,0.53-6.22,0.79-9.32,0.79
				c-3.11,0-6.22-0.26-9.32-0.79c-3.82-0.65-6.42-4.25-5.9-8.1l2.71-20.18c0.02-0.18,0.01-0.36-0.03-0.53l-1.36-5.94
				c-0.21-0.91,0.44-1.81,1.37-1.89C40.98,33.34,45.16,33.16,49.33,33.16 M49.33,31.19c-4.22,0-8.49,0.19-12.71,0.56
				c-1.01,0.09-1.93,0.61-2.53,1.43c-0.6,0.82-0.81,1.87-0.59,2.86l1.34,5.87L32.16,62c-0.66,4.95,2.64,9.47,7.53,10.3
				c3.2,0.54,6.45,0.82,9.65,0.82c3.2,0,6.45-0.27,9.65-0.82c4.89-0.83,8.19-5.35,7.53-10.3l-2.7-20.09l1.34-5.87
				c0.23-0.99,0.01-2.03-0.59-2.86c-0.6-0.82-1.52-1.34-2.53-1.43C57.82,31.38,53.55,31.19,49.33,31.19L49.33,31.19z"/>
		</g>
		<line class="st3" x1="40.7" y1="41.23" x2="57.97" y2="41.23"/>
	</g>
</g>
</svg>
