<?xml version="1.0" encoding="utf-8"?>
<!-- Generator: Adobe Illustrator 24.2.3, SVG Export Plug-In . SVG Version: 6.00 Build 0)  -->
<svg version="1.1" id="Layer_1" xmlns="http://www.w3.org/2000/svg" xmlns:xlink="http://www.w3.org/1999/xlink" x="0px" y="0px"
	 viewBox="0 0 98.37 98.37" style="enable-background:new 0 0 98.37 98.37;" xml:space="preserve">
<style type="text/css">
	.st0{fill:#02205C;}
	.st1{fill:none;stroke:#009CA5;stroke-width:1.1669;stroke-linecap:round;stroke-miterlimit:10;}
	.st2{fill:#009CA5;}
	.st3{fill:none;stroke:#02205C;stroke-width:1.1669;stroke-linecap:round;stroke-miterlimit:10;}
	.st4{fill:none;stroke:#02205C;stroke-width:1.0862;stroke-linecap:round;stroke-miterlimit:10;}
	.st5{fill:none;stroke:#009CA5;stroke-width:1.6363;stroke-linecap:round;stroke-miterlimit:10;}
</style>
<g>
	<circle class="st0" cx="49.19" cy="49.19" r="49.19"/>
	<g>
		<g>
			<path class="st1" d="M73.14,59.63c0,0,1.92-0.02,2.65,1.77c0.73,1.79-1.07,4.69,1.54,7.06"/>
			<g>
				<path class="st2" d="M70.17,54.79l0.42-2.44c0.05-0.29-0.14-0.56-0.43-0.61l-1.7-0.29c-0.29-0.05-0.56,0.14-0.61,0.43
					l-0.42,2.44"/>
				<path class="st2" d="M61.25,54.79l-0.42-2.44c-0.05-0.29,0.14-0.56,0.43-0.61l1.7-0.29c0.29-0.05,0.56,0.14,0.61,0.43L64,54.31"
					/>
			</g>
			<g>
				<path class="st2" d="M65.71,77.83c-1.87,0-3.76-0.16-5.63-0.48c-2.58-0.44-4.33-2.83-3.98-5.45l1.61-11.97
					c0-0.03,0-0.07-0.01-0.11l-0.8-3.52c-0.1-0.42,0-0.87,0.25-1.22c0.25-0.35,0.65-0.57,1.08-0.61c2.48-0.22,5-0.33,7.48-0.33
					c2.48,0,5,0.11,7.48,0.33c0.43,0.04,0.82,0.26,1.08,0.61c0.26,0.35,0.35,0.8,0.25,1.22l-0.81,3.52
					c-0.01,0.04-0.01,0.08-0.01,0.12l1.61,11.96c0.35,2.62-1.4,5.02-3.98,5.46C69.47,77.67,67.58,77.83,65.71,77.83z"/>
				<path class="st0" d="M65.71,54.71c2.48,0,4.95,0.11,7.43,0.33c0.55,0.05,0.94,0.58,0.81,1.12l-0.8,3.52
					c-0.02,0.1-0.03,0.21-0.02,0.32l1.61,11.97c0.31,2.28-1.23,4.42-3.5,4.8c-1.84,0.31-3.69,0.47-5.53,0.47
					c-1.84,0-3.69-0.16-5.53-0.47c-2.27-0.38-3.81-2.52-3.5-4.8L58.29,60c0.01-0.11,0.01-0.21-0.02-0.32l-0.8-3.52
					c-0.12-0.54,0.26-1.07,0.81-1.12C60.76,54.82,63.23,54.71,65.71,54.71 M65.71,53.55c-2.5,0-5.04,0.11-7.54,0.33
					c-0.6,0.05-1.14,0.36-1.5,0.85c-0.36,0.49-0.48,1.11-0.35,1.7l0.79,3.48l-1.6,11.91c-0.39,2.94,1.57,5.62,4.46,6.11
					c1.9,0.32,3.82,0.48,5.72,0.48c1.9,0,3.83-0.16,5.72-0.48c2.9-0.49,4.86-3.17,4.46-6.11L74.3,59.9l0.79-3.48
					c0.13-0.59,0.01-1.21-0.35-1.7c-0.35-0.49-0.9-0.8-1.5-0.85C70.75,53.66,68.21,53.55,65.71,53.55L65.71,53.55z"/>
			</g>
			<line class="st3" x1="60.59" y1="59.5" x2="70.83" y2="59.5"/>
		</g>
		<g>
			<path class="st2" d="M29.82,50.21l-1.89-1.52l-2.09,2.59c0.43,0.57,1.02,1.26,1.62,1.86L29.82,50.21z"/>
			<path class="st2" d="M44.9,73.74c0.01-2.54-5.57-18.31-5.94-18.16l0.01-0.01c-2.92,1.66-7.23,1.11-10.63-1.63
				c-0.28-0.22-0.58-0.5-0.88-0.81c-0.59-0.6-1.19-1.29-1.62-1.86c-0.07-0.09-0.14-0.18-0.19-0.26c0,0-5.58,3.12-6.51,5.65
				c-0.93,2.53,1.16,4.92,3.26,5.66l0.94,0.33c0.51,0.18,1.02,0.38,1.52,0.58c1.67,0.69,3.28,1.53,4.79,2.49
				c3.37,2.15,6.98,6.76,6.98,6.76s2.06,2.7,2.76,3.7c0.34,0.48,2.28,2.84,3.47,2.26C44.05,77.87,44.89,76.28,44.9,73.74z"/>
			<g>
				<path class="st4" d="M23.77,51.61c0.18,1.46,1.87,6.11,6.9,11.42s9.14,8.12,14.5,10.89"/>
				<g>
					<line class="st4" x1="41.63" y1="61.79" x2="29.78" y2="61.94"/>
					<line class="st4" x1="27.53" y1="59.04" x2="40.58" y2="58.87"/>
				</g>
				<g>
					<line class="st4" x1="35.17" y1="67.34" x2="42.87" y2="64.87"/>
					<line class="st4" x1="43.77" y1="67.65" x2="38.1" y2="69.47"/>
				</g>
			</g>
			<path class="st0" d="M34.32,55.45c-0.73-0.08-1.47-0.24-2.21-0.51c-1.12-0.4-2.17-1-3.14-1.78c-0.23-0.18-0.49-0.43-0.79-0.73
				c-0.53-0.54-1.11-1.19-1.53-1.75c-0.06-0.08-0.12-0.16-0.18-0.24l-0.82,0.58c0.06,0.08,0.13,0.17,0.19,0.26
				c0.43,0.57,1.02,1.26,1.62,1.86c0.3,0.3,0.6,0.58,0.88,0.81c1.08,0.87,2.24,1.52,3.43,1.94c0.85,0.31,1.71,0.49,2.56,0.57
				C34.32,56.12,34.32,55.79,34.32,55.45z"/>
		</g>
	</g>
	<g>
		<g>
			<path class="st2" d="M57.82,23.55h-17.4c-1.12,0-2.03-0.91-2.03-2.03v-0.2c0-1.12,0.91-2.03,2.03-2.03h17.4
				c1.12,0,2.03,0.91,2.03,2.03v0.2C59.86,22.64,58.95,23.55,57.82,23.55z"/>
		</g>
		<path class="st5" d="M40.93,34.03c0,0,4.05-6.01,8.2-6.01s8.2,6.01,8.2,6.01"/>
		<g>
			<rect x="47.47" y="18.74" class="st2" width="3.31" height="11.23"/>
			<path class="st0" d="M50.23,19.28v10.13h-2.21V19.28H50.23 M51.32,18.19h-1.09h-2.21h-1.09v1.09v10.13v1.09h1.09h2.21h1.09v-1.09
				V19.28V18.19L51.32,18.19z"/>
		</g>
		<g>
			<g>
				<g>
					<path class="st2" d="M51.75,37.32l0.79,2.45c0.13,0.41,0.52,0.69,0.95,0.67c3.97-0.19,7.61-1.36,10.93-3.54
						c0.36-0.24,0.51-0.69,0.38-1.1l-0.79-2.45c-0.13-0.41-0.52-0.69-0.95-0.67c-3.97,0.19-7.61,1.36-10.93,3.54
						C51.77,36.46,51.62,36.91,51.75,37.32z"/>
				</g>
				
					<ellipse transform="matrix(0.9515 -0.3078 0.3078 0.9515 -8.7334 19.8659)" class="st0" cx="58.62" cy="37.62" rx="5.08" ry="0.68"/>
			</g>
			<g>
				<g>
					<path class="st2" d="M46.5,37.32l-0.79,2.45c-0.13,0.41-0.52,0.69-0.95,0.67c-3.97-0.19-7.61-1.36-10.93-3.54
						c-0.36-0.24-0.51-0.69-0.38-1.1l0.79-2.45c0.13-0.41,0.52-0.69,0.95-0.67c3.97,0.19,7.61,1.36,10.93,3.54
						C46.48,36.46,46.63,36.91,46.5,37.32z"/>
				</g>
				
					<ellipse transform="matrix(0.3078 -0.9515 0.9515 0.3078 -8.3649 63.7461)" class="st0" cx="39.63" cy="37.62" rx="0.68" ry="5.08"/>
			</g>
		</g>
	</g>
</g>
</svg>
