<?xml version="1.0" encoding="utf-8"?>
<!-- Generator: Adobe Illustrator 24.2.3, SVG Export Plug-In . SVG Version: 6.00 Build 0)  -->
<svg version="1.1" id="Layer_1" xmlns="http://www.w3.org/2000/svg" xmlns:xlink="http://www.w3.org/1999/xlink" x="0px" y="0px"
	 viewBox="0 0 98.37 98.37" style="enable-background:new 0 0 98.37 98.37;" xml:space="preserve">
<style type="text/css">
	.st0{fill:#02205C;}
	.st1{fill:#009CA5;}
	.st2{fill:none;stroke:#009CA5;stroke-width:2.9512;stroke-linecap:round;stroke-miterlimit:10;}
</style>
<g>
	<circle class="st0" cx="49.19" cy="49.19" r="49.19"/>
	<g>
		<g>
			<path class="st1" d="M64.88,38.83H33.49c-2.02,0-3.66-1.64-3.66-3.66V34.8c0-2.02,1.64-3.66,3.66-3.66h31.39
				c2.02,0,3.66,1.64,3.66,3.66v0.36C68.55,37.19,66.91,38.83,64.88,38.83z"/>
		</g>
		<path class="st2" d="M34.41,57.74c0,0,7.3-10.84,14.78-10.84s14.78,10.84,14.78,10.84"/>
		<g>
			<rect x="46.21" y="30.16" class="st1" width="5.96" height="20.25"/>
			<path class="st0" d="M51.18,31.14v18.28h-3.99V31.14H51.18 M53.15,29.17h-1.97h-3.99h-1.97v1.97v18.28v1.97h1.97h3.99h1.97v-1.97
				V31.14V29.17L53.15,29.17z"/>
		</g>
		<g>
			<g>
				<g>
					<path class="st1" d="M53.92,63.67l1.43,4.42c0.24,0.74,0.94,1.24,1.71,1.2c7.15-0.34,13.72-2.46,19.72-6.38
						c0.65-0.42,0.92-1.24,0.68-1.98l-1.43-4.42c-0.24-0.74-0.94-1.24-1.71-1.2c-7.15,0.34-13.72,2.46-19.72,6.38
						C53.96,62.11,53.68,62.93,53.92,63.67z"/>
				</g>
				
					<ellipse transform="matrix(0.9515 -0.3078 0.3078 0.9515 -16.5439 23.525)" class="st0" cx="66.31" cy="64.21" rx="9.16" ry="1.22"/>
			</g>
			<g>
				<g>
					<path class="st1" d="M44.45,63.67l-1.43,4.42c-0.24,0.74-0.94,1.24-1.71,1.2c-7.15-0.34-13.72-2.46-19.72-6.38
						c-0.65-0.42-0.92-1.24-0.68-1.98l1.43-4.42c0.24-0.74,0.94-1.24,1.71-1.2c7.15,0.34,13.72,2.46,19.72,6.38
						C44.42,62.11,44.69,62.93,44.45,63.67z"/>
				</g>
				
					<ellipse transform="matrix(0.3078 -0.9515 0.9515 0.3078 -38.9033 74.9574)" class="st0" cx="32.06" cy="64.21" rx="1.22" ry="9.16"/>
			</g>
		</g>
	</g>
</g>
</svg>
