<?xml version="1.0" encoding="utf-8"?>
<!-- Generator: Adobe Illustrator 24.2.3, SVG Export Plug-In . SVG Version: 6.00 Build 0)  -->
<svg version="1.1" id="Layer_1" xmlns="http://www.w3.org/2000/svg" xmlns:xlink="http://www.w3.org/1999/xlink" x="0px" y="0px"
	 viewBox="0 0 98.37 98.37" style="enable-background:new 0 0 98.37 98.37;" xml:space="preserve">
<style type="text/css">
	.st0{fill:#02205C;}
	.st1{fill:#009CA5;}
	.st2{fill:none;stroke:#02205C;stroke-width:1.9675;stroke-linecap:round;stroke-miterlimit:10;}
</style>
<g>
	<circle class="st0" cx="49.19" cy="49.19" r="49.19"/>
	<g>
		<path class="st1" d="M34.83,29.06l-4.15-1.43l-1.96,5.69c1.08,0.71,2.52,1.52,3.9,2.17L34.83,29.06z"/>
		<path class="st1" d="M75,59.86c-1.55-4.33-20.75-27.78-21.29-27.28l0.02-0.02c-3.96,4.63-11.63,6.34-19.12,3.77
			c-0.61-0.21-1.29-0.5-1.99-0.83c-1.38-0.65-2.82-1.46-3.9-2.17c-0.17-0.11-0.34-0.22-0.49-0.33c0,0-7.58,8.76-7.62,13.63
			c-0.03,4.88,5.01,7.68,9.04,7.64l1.81-0.01c0.99-0.01,1.97,0.01,2.95,0.06c3.28,0.15,6.52,0.58,9.7,1.3
			c7.06,1.58,16.06,7.22,16.06,7.22s5.16,3.33,6.97,4.6c0.86,0.61,5.64,3.44,7.3,1.71C76.1,67.41,76.55,64.19,75,59.86z"/>
		<g>
			<path class="st2" d="M25.39,35.15c1.2,2.37,6.95,9.25,18.79,15.21s20.56,8.21,31.39,9.62"/>
			<g>
				<line class="st2" x1="62.08" y1="41.51" x2="41.98" y2="49.06"/>
				<line class="st2" x1="36.37" y1="45.51" x2="58.49" y2="37.19"/>
			</g>
			<g>
				<line class="st2" x1="54.48" y1="54.94" x2="66.09" y2="46"/>
				<line class="st2" x1="69.34" y1="50.19" x2="60.8" y2="56.76"/>
			</g>
		</g>
		<path class="st0" d="M45.72,35.21c-1.28,0.31-2.65,0.49-4.08,0.49c-2.15,0-4.32-0.37-6.45-1.1c-0.5-0.17-1.1-0.43-1.8-0.76
			c-1.24-0.59-2.62-1.35-3.68-2.05c-0.16-0.1-0.31-0.2-0.45-0.3l-1.04,1.49c0.15,0.1,0.32,0.22,0.49,0.33
			c1.08,0.71,2.52,1.52,3.9,2.17c0.7,0.33,1.38,0.62,1.99,0.83c2.37,0.81,4.76,1.2,7.04,1.2c1.64,0,3.22-0.22,4.71-0.6
			C46.14,36.35,45.93,35.78,45.72,35.21z"/>
	</g>
</g>
</svg>
